<svg xmlns="http://www.w3.org/2000/svg" xmlns:xlink="http://www.w3.org/1999/xlink" version="1.1"
    id="Layer_1" x="0px" y="0px" width="100%" viewBox="0 0 2560 2560"
    enable-background="new 0 0 2560 2560" xml:space="preserve">
    <path fill="#D9000C" opacity="1.000000" stroke="none" d=" M2185.062744,2.000001   C2185.889893,6.993734 2185.683594,11.987466 2185.683350,16.981201   C2185.668945,601.926208 2185.669678,1186.871216 2185.669678,1771.816284   C2185.669678,1776.764160 2185.669434,1781.712036 2185.669434,1786.388306   C2177.798584,1788.696899 410.263336,1789.370361 396.330688,1787.088867   C396.330688,1783.785156 396.330719,1780.239014 396.330719,1776.692749   C396.330597,1754.694824 396.330322,1732.696899 396.330322,1710.698975   C396.330292,1146.751953 396.330475,582.804993 396.326813,18.858030   C396.326782,13.858903 396.274231,8.859776 396.123108,2.930324   C992.041809,2.000000 1588.083618,2.000000 2185.062744,2.000001  M1557.669434,237.000122   C1557.669434,169.809067 1557.669434,102.618019 1557.669434,35.687767   C1544.840576,33.422874 436.381500,33.939758 428.332092,36.215202   C428.332092,40.223148 428.332092,44.503513 428.332092,48.783875   C428.332062,231.079391 428.282410,413.374939 428.422546,595.670349   C428.434265,610.899902 429.662659,626.131714 430.454773,641.355774   C430.730316,646.651672 431.117584,651.970825 431.935486,657.204041   C434.433044,673.183350 436.412201,689.296692 439.982452,705.042847   C445.318024,728.574768 450.662628,752.221375 458.132294,775.124939   C469.025818,808.526611 483.551575,840.464722 500.827209,871.212708   C511.570465,890.333923 523.241028,908.785706 535.955505,926.545410   C563.299072,964.739014 594.978088,999.127319 631.163391,1029.054077   C669.071838,1060.406006 709.931335,1087.327759 754.841980,1107.913696   C784.451355,1121.485962 814.794556,1132.954712 846.172302,1141.530640   C867.213745,1147.281494 888.476379,1151.910522 910.241760,1154.753418   C933.949951,1157.850220 957.548035,1160.479248 981.491272,1160.410156   C1013.354065,1160.318237 1045.183350,1160.642456 1076.661255,1154.360840   C1091.900269,1151.319702 1107.449097,1149.699707 1122.555664,1146.151001   C1158.102051,1137.800903 1192.348633,1125.429565 1225.703003,1110.614258   C1231.602539,1107.993774 1237.255981,1104.819458 1243.522705,1101.648071   C1221.985107,1058.598999 1201.035522,1016.761658 1180.119263,974.907837   C1159.196167,933.040527 1138.378174,891.120483 1117.381104,849.290344   C1096.232056,807.157349 1074.251831,765.426697 1053.866943,722.929199   C1033.740112,680.969421 1010.640930,640.462891 990.627136,596.322266   C1019.556152,596.322266 1046.446045,596.322205 1073.335938,596.322205   C1099.997070,596.322205 1126.658203,596.322205 1153.319336,596.322205   C1180.313721,596.322205 1207.308228,596.322205 1234.302612,596.322205   C1261.296997,596.322205 1288.291382,596.322205 1315.285767,596.322205   C1342.280151,596.322205 1369.274536,596.322205 1396.268921,596.322205   C1422.930054,596.322205 1449.591187,596.337280 1476.252319,596.317932   C1503.092773,596.298462 1529.933228,596.244873 1557.669434,596.204895   C1557.669434,476.150208 1557.669434,357.575195 1557.669434,237.000122  M1842.378540,1209.292847   C1843.790283,1206.288086 1845.142334,1203.253418 1846.623291,1200.283081   C1859.658081,1174.137695 1872.715576,1148.003662 1885.766724,1121.866455   C1912.318726,1068.690918 1938.810913,1015.485474 1965.443848,962.350586   C1984.482666,924.366272 2003.775391,886.509094 2022.837402,848.536194   C2043.114136,808.143372 2063.269531,767.689575 2083.445312,727.246216   C2097.982178,698.105835 2112.479980,668.945801 2126.949951,639.772095   C2128.351807,636.945374 2129.434814,633.960327 2131.058350,630.119873   C1768.704834,630.119873 1407.871216,630.119873 1045.635620,630.119873   C1223.935669,990.270386 1404.411621,1348.259766 1583.191772,1707.093384   C1584.455566,1709.629639 1586.226318,1711.913086 1588.324097,1715.197144   C1589.969238,1712.618408 1591.116699,1711.112305 1591.959106,1709.451294   C1596.915405,1699.679077 1601.799805,1689.870483 1606.710205,1680.075073   C1629.466309,1634.682007 1652.187256,1589.271240 1674.991821,1543.902466   C1689.758057,1514.525513 1704.781616,1485.277466 1719.447510,1455.850830   C1739.442871,1415.730469 1759.108398,1375.445801 1779.097656,1335.322388   C1799.836548,1293.693848 1820.792847,1252.173584 1842.378540,1209.292847  z"/>
    <path fill="#D9000C" opacity="1.000000" stroke="none" d=" M1726.000244,2472.349121   C1879.291870,2472.349121 2031.583496,2472.349121 2183.644287,2472.349121   C2186.077881,2479.973145 2186.570068,2520.681152 2184.467529,2532.980469   C1589.118896,2532.980469 993.647400,2532.980469 398.190338,2532.980469   C395.910950,2526.080078 395.408752,2485.208984 397.700439,2472.349121   C839.964783,2472.349121 1282.482422,2472.349121 1726.000244,2472.349121  z"/>
    <path fill="#D7000C" opacity="1.000000" stroke="none" d=" M477.679779,1924.000244   C477.679352,1949.980469 477.348511,1974.967651 477.867828,1999.937134   C478.036896,2008.064575 479.513733,2016.437866 481.995758,2024.185181   C486.666779,2038.765747 498.556488,2045.585205 512.796997,2047.029541   C522.196655,2047.982788 532.193909,2047.342285 541.379333,2045.142578   C556.709717,2041.471436 563.720215,2029.599854 566.028442,2014.718018   C566.534180,2011.457031 566.307434,2008.072388 566.308594,2004.744751   C566.323914,1961.445557 566.319458,1918.146484 566.319946,1874.847290   C566.320007,1870.920288 566.319946,1866.993408 566.319946,1861.668945   C575.543335,1861.668945 583.747620,1861.668823 591.951843,1861.668823   C600.228760,1861.668823 608.505615,1861.668945 617.546204,1861.668945   C617.851562,1865.273682 618.303040,1868.138794 618.305786,1871.004272   C618.350647,1917.634155 618.752625,1964.269287 618.152588,2010.891357   C617.881775,2031.933472 611.417419,2051.529785 596.307556,2066.918457   C583.890381,2079.564941 568.070862,2086.551514 550.753662,2089.703857   C532.014343,2093.114990 513.139099,2092.764404 494.367554,2089.813721   C458.460480,2084.169189 430.742615,2057.588379 427.279938,2019.379028   C425.894470,2004.090332 425.854706,1988.920410 425.731293,1973.698730   C425.461304,1940.393921 425.647980,1907.085327 425.648102,1873.778320   C425.648132,1870.192505 425.648132,1866.606812 425.648132,1862.349854   C443.128387,1862.349854 459.614166,1862.349854 477.605774,1862.349854   C477.630554,1872.617676 477.664551,1882.820801 477.677094,1893.023926   C477.689392,1903.015991 477.679779,1913.008057 477.679779,1924.000244  z"/>
    <path fill="#D6000C" opacity="1.000000" stroke="none" d=" M1787.664429,1900.001709   C1787.664429,1962.247803 1787.664429,2023.494141 1787.664429,2085.534180   C1772.076172,2085.534180 1757.610352,2085.534180 1742.309448,2085.534180   C1741.914551,2081.583008 1741.507324,2077.508057 1741.090576,2073.336670   C1733.430908,2077.967041 1726.416992,2082.709473 1718.931885,2086.528320   C1714.929932,2088.570068 1710.145264,2089.869629 1705.661621,2090.027832   C1691.771851,2090.518311 1677.822388,2091.655518 1664.467651,2085.584717   C1644.296631,2076.415039 1632.360107,2060.372803 1625.586914,2040.063110   C1621.272339,2027.125610 1618.926636,2013.676270 1619.720581,1999.979492   C1621.051758,1977.016357 1626.588867,1955.560547 1642.923218,1938.092896   C1653.873413,1926.383179 1667.750854,1920.300659 1683.089844,1918.541504   C1702.938354,1916.265381 1721.472778,1920.310059 1736.342285,1935.112915   C1736.687134,1935.456177 1737.550415,1935.278809 1739.377441,1935.471313   C1739.377441,1911.290649 1739.377441,1887.192139 1739.377441,1862.394043   C1755.722778,1862.394043 1770.882202,1862.394043 1787.409668,1862.394043   C1787.494507,1874.589111 1787.579468,1886.795532 1787.664429,1900.001709  M1667.815186,2012.381836   C1670.114136,2020.309814 1671.651123,2028.566284 1674.892090,2036.088501   C1679.671875,2047.182007 1695.954224,2056.849854 1706.267944,2055.382324   C1720.024414,2053.425049 1730.367432,2046.465332 1735.691772,2033.215698   C1743.466553,2013.867798 1743.274292,1994.330933 1735.234863,1975.277954   C1732.899536,1969.743286 1728.380859,1964.489014 1723.580811,1960.754395   C1708.784180,1949.241821 1683.363037,1954.364746 1674.220337,1972.691162   C1668.184692,1984.789429 1667.184814,1997.460815 1667.815186,2012.381836  z"/>
    <path fill="#D6000C" opacity="1.000000" stroke="none" d=" M2108.319824,1905.982910   C2108.319824,1891.057129 2108.319824,1877.128052 2108.319824,1862.436279   C2124.360352,1862.436279 2139.427979,1862.436279 2155.087402,1862.436279   C2155.087402,1936.760010 2155.087402,2010.611084 2155.087402,2084.414062   C2148.177246,2086.737793 2124.239258,2087.255615 2111.032959,2085.290527   C2110.640137,2081.639160 2110.226074,2077.787842 2109.702881,2072.922363   C2107.583984,2074.333252 2105.744873,2075.302979 2104.206787,2076.623291   C2094.045410,2085.346191 2082.589844,2090.524170 2068.927490,2090.377441   C2055.997803,2090.238770 2043.184204,2090.981201 2031.062622,2084.379395   C2011.556641,2073.755615 1998.902100,2058.324707 1993.608521,2036.637817   C1990.536255,2024.050659 1987.207153,2011.491821 1988.403198,1998.462402   C1990.302612,1977.769409 1994.509766,1957.697266 2008.790283,1941.414795   C2021.671997,1926.727417 2038.001953,1919.308960 2057.561035,1918.223877   C2076.398926,1917.178955 2092.621582,1922.872559 2107.818848,1937.234985   C2108.695557,1925.901855 2108.150146,1916.419800 2108.319824,1905.982910  M2052.353027,2046.810303   C2053.229736,2047.284912 2054.153320,2047.689575 2054.975830,2048.244385   C2072.487793,2060.058105 2092.517334,2055.098389 2102.700195,2036.850952   C2106.721680,2029.644165 2107.428711,2021.921143 2108.954590,2014.116211   C2112.114990,1997.948364 2108.830322,1983.260132 2100.806396,1969.436279   C2089.963867,1950.756226 2058.945312,1949.168945 2045.250122,1969.104370   C2038.275024,1979.257446 2036.341309,1990.630493 2036.053223,2002.151733   C2035.647827,2018.355347 2038.740112,2033.909424 2052.353027,2046.810303  z"/>
    <path fill="#D6000C" opacity="1.000000" stroke="none" d=" M1406.651367,2158.475586   C1411.575562,2160.481201 1409.653320,2163.518311 1408.775391,2166.150879   C1394.109375,2210.139404 1379.334473,2254.091797 1364.696045,2298.089600   C1356.224121,2323.552734 1347.984863,2349.093262 1339.545410,2374.567383   C1338.527588,2377.639404 1336.911133,2380.513672 1335.615845,2383.382568   C1316.313354,2383.382568 1297.699219,2383.382568 1278.390259,2383.382568   C1253.745117,2309.042969 1230.082153,2234.459473 1204.945557,2158.323486   C1213.890381,2158.323486 1220.456421,2158.321533 1227.022461,2158.323975   C1235.681519,2158.327148 1244.343994,2158.480225 1252.998169,2158.275879   C1257.190674,2158.177002 1260.127075,2159.453369 1261.427856,2163.579102   C1268.594360,2186.309814 1275.752808,2209.042725 1282.894409,2231.781250   C1290.225708,2255.123779 1297.522583,2278.477051 1304.880127,2301.811523   C1305.354126,2303.314941 1306.219849,2304.695312 1307.858032,2308.141113   C1315.957153,2291.204590 1319.396973,2274.578613 1324.642090,2258.603760   C1330.107422,2241.958984 1335.923340,2225.429199 1341.332642,2208.766846   C1346.646606,2192.398438 1351.642700,2175.927002 1357.125732,2158.388916   C1373.335693,2158.388916 1389.559082,2158.388916 1406.651367,2158.475586  z"/>
    <path fill="#D6000C" opacity="1.000000" stroke="none" d=" M849.687866,2260.000000   C849.687866,2301.287598 849.687866,2341.575195 849.687866,2383.314453   C834.939148,2383.989014 820.856384,2383.654785 806.324036,2383.533447   C805.879089,2378.492676 805.511169,2374.323975 805.024963,2368.816162   C802.584167,2371.001709 801.007568,2372.433350 799.409668,2373.840820   C788.499634,2383.451904 775.609375,2387.766602 761.233337,2388.376221   C745.621887,2389.037842 730.961670,2386.303223 717.653259,2377.580811   C703.738037,2368.460449 695.153259,2355.580322 689.556702,2340.159424   C683.523499,2323.535400 682.484253,2306.325684 683.856323,2289.104736   C685.613586,2267.048828 692.780823,2247.058594 710.167358,2231.846680   C721.350281,2222.062500 734.002930,2216.538086 748.930298,2216.298340   C759.586975,2216.127197 770.382874,2215.527832 780.281250,2220.255615   C787.335022,2223.624756 793.923889,2227.967285 801.570068,2232.364014   C803.123962,2220.089111 802.078674,2207.966553 802.270203,2195.911621   C802.460205,2183.955566 802.311707,2171.994141 802.311707,2158.697754   C818.111450,2157.996094 833.184082,2158.379395 849.687866,2158.424805   C849.687866,2192.605713 849.687866,2225.802979 849.687866,2260.000000  M790.065674,2343.128418   C794.878601,2338.820068 798.071228,2333.569824 800.114868,2327.400635   C805.974548,2309.711426 805.133118,2292.066162 799.526184,2274.651855   C795.170471,2261.123779 778.091675,2249.727783 765.500122,2251.879150   C750.043823,2254.519775 738.718323,2262.600098 733.637756,2278.229980   C728.192932,2294.980713 728.785156,2311.400879 735.268188,2327.718018   C743.950562,2349.570801 768.640991,2361.273926 790.065674,2343.128418  z"/>
    <path fill="#D6000C" opacity="1.000000" stroke="none" d=" M1964.745605,2086.283691   C1953.868042,2086.322754 1943.863037,2086.547119 1933.870850,2086.284912   C1919.831787,2085.916504 1924.002563,2088.507568 1918.134277,2075.543701   C1916.427856,2076.470215 1914.702393,2077.281006 1913.105835,2078.294678   C1899.873779,2086.694580 1885.705566,2091.335693 1869.764648,2090.439941   C1859.177368,2089.845215 1848.758911,2090.399414 1838.341431,2086.484375   C1821.386108,2080.111816 1808.499023,2059.507080 1810.286133,2044.749878   C1811.078003,2038.211426 1810.908203,2031.498657 1812.275757,2025.100220   C1815.152100,2011.642212 1824.485229,2003.560425 1836.535522,1998.032715   C1848.178589,1992.692017 1860.793701,1991.744263 1873.159180,1989.707764   C1882.630737,1988.148071 1892.205444,1987.198853 1901.657593,1985.540771   C1911.226196,1983.862427 1918.003418,1976.556030 1917.463379,1969.228516   C1916.713501,1959.052612 1909.796753,1952.361938 1899.236694,1951.759521   C1895.913940,1951.569946 1892.530396,1952.050781 1889.246704,1951.643555   C1875.614624,1949.952881 1866.287231,1959.166504 1862.929199,1969.874390   C1862.435547,1971.448853 1861.977295,1973.034424 1861.352295,1975.115234   C1846.520752,1975.115234 1831.711426,1975.115234 1816.632690,1975.115234   C1813.517700,1961.692383 1818.897949,1951.194092 1826.449341,1941.696899   C1836.736206,1928.759521 1851.447876,1923.783447 1866.977539,1920.388184   C1880.796753,1917.366943 1894.891113,1917.283325 1908.629883,1918.655396   C1924.966553,1920.286865 1941.775513,1922.779053 1953.749756,1936.365845   C1959.341309,1942.710449 1963.545532,1949.840576 1963.744751,1958.539307   C1964.103271,1974.191162 1964.222412,1989.849243 1964.327515,2005.505493   C1964.416992,2018.837280 1964.657959,2032.179565 1964.253906,2045.499634   C1963.888306,2057.546631 1964.850952,2069.364502 1968.412964,2080.857910   C1969.427856,2084.133057 1969.507202,2085.962158 1964.745605,2086.283691  M1894.802979,2056.473145   C1897.227051,2055.556152 1899.901367,2055.028564 1902.034424,2053.658203   C1914.983521,2045.339355 1920.209106,2029.908447 1916.388672,2011.498535   C1909.029663,2012.910889 1901.663574,2014.321167 1894.298950,2015.739014   C1886.856934,2017.171631 1879.312500,2018.218994 1872.002808,2020.152832   C1863.747192,2022.336914 1856.850586,2031.477539 1856.743896,2039.213135   C1856.643799,2046.474365 1862.943970,2054.866211 1871.866211,2056.623535   C1878.740479,2057.977783 1886.083374,2056.952393 1894.802979,2056.473145  z"/>
    <path fill="#D6000C" opacity="1.000000" stroke="none" d=" M1464.841309,2216.337891   C1479.369629,2216.772217 1493.033081,2216.608154 1506.565186,2217.861572   C1516.766357,2218.806396 1526.572510,2221.917480 1535.173462,2228.234375   C1546.177734,2236.315918 1551.749512,2246.826660 1551.707275,2260.496826   C1551.619995,2288.805176 1551.280151,2317.122559 1551.867554,2345.418945   C1552.118164,2357.486084 1554.432007,2369.510010 1555.854370,2381.957764   C1550.884155,2384.245361 1530.442993,2384.967529 1509.316162,2382.995605   C1508.550903,2379.933105 1507.717407,2376.597412 1506.690186,2372.486572   C1504.534058,2373.731689 1502.897461,2374.645020 1501.291504,2375.609375   C1476.036987,2390.774170 1449.653198,2392.775391 1422.417603,2381.870850   C1412.401855,2377.861084 1405.397217,2370.372314 1401.769531,2360.094971   C1395.102539,2341.207031 1395.355713,2322.881104 1408.230469,2306.543701   C1415.776733,2296.967773 1427.279907,2293.434570 1438.588623,2290.878906   C1448.872314,2288.555176 1459.522949,2287.898193 1469.967529,2286.229492   C1477.478516,2285.029297 1484.985352,2283.653076 1492.366455,2281.836670   C1498.886108,2280.232178 1503.622925,2276.621582 1504.362183,2269.090088   C1505.153687,2261.028320 1501.404175,2255.580322 1494.912231,2251.863525   C1481.084717,2243.946777 1452.446533,2247.402344 1449.721558,2269.736328   C1449.652954,2270.298340 1449.021606,2270.791748 1448.291992,2271.831055   C1433.784180,2271.831055 1418.912964,2271.831055 1404.091064,2271.831055   C1399.949829,2248.318359 1420.403809,2226.611572 1444.461670,2220.275391   C1450.849487,2218.593262 1457.428589,2217.637695 1464.841309,2216.337891  M1504.047974,2310.897217   C1503.349243,2310.351074 1502.551636,2309.239990 1501.966553,2309.342285   C1489.990723,2311.439209 1477.973022,2313.378662 1466.115112,2316.027588   C1461.391479,2317.082764 1456.699951,2319.241211 1452.585327,2321.835205   C1446.574585,2325.625000 1443.563110,2331.814453 1444.558960,2338.782471   C1445.588379,2345.983887 1449.600830,2351.811279 1457.089233,2353.943848   C1465.833008,2356.434326 1474.766235,2356.801270 1483.484253,2353.903564   C1492.791992,2350.809326 1499.886353,2344.799072 1502.036743,2335.016113   C1503.640991,2327.718750 1503.581665,2320.055664 1504.047974,2310.897217  z"/>
    <path fill="#D6000C" opacity="1.000000" stroke="none" d=" M1748.043457,2351.674805   C1736.363281,2331.480225 1733.902100,2309.868408 1736.708130,2288.345459   C1741.483643,2251.716064 1764.994995,2222.899902 1803.643555,2217.042480   C1825.720459,2213.696533 1847.975220,2215.318604 1867.244995,2230.229736   C1881.926880,2241.590820 1890.356445,2256.685791 1895.526123,2273.695801   C1899.364990,2286.327148 1900.700562,2299.574707 1899.115112,2314.258301   C1860.925903,2314.258301 1823.153442,2314.258301 1785.624146,2314.258301   C1783.104126,2330.616699 1791.543579,2344.327148 1807.202026,2350.188232   C1819.989502,2354.975098 1842.881958,2352.831299 1854.857788,2332.167236   C1868.091431,2332.167236 1881.622437,2332.167236 1896.055664,2332.167236   C1894.291992,2344.217285 1888.509521,2353.602051 1881.398682,2362.325439   C1866.224854,2380.940430 1846.026611,2388.172852 1822.613525,2388.390137   C1809.215332,2388.514404 1796.159180,2387.004883 1783.617676,2382.091064   C1768.497437,2376.166504 1757.656738,2365.148438 1748.043457,2351.674805  M1785.383301,2276.490723   C1783.219727,2281.880859 1785.436279,2283.756104 1790.804810,2283.724365   C1808.116089,2283.622070 1825.428589,2283.718018 1842.740234,2283.661865   C1844.993774,2283.654541 1847.245972,2283.202881 1849.418945,2282.965820   C1850.215454,2271.322510 1841.596313,2257.694580 1831.723999,2254.243896   C1811.749756,2247.262207 1791.606812,2256.637451 1785.383301,2276.490723  z"/>
    <path fill="#D6000C" opacity="1.000000" stroke="none" d=" M990.488525,2382.948242   C965.916748,2389.934570 942.325867,2391.189453 918.862305,2381.186035   C898.661011,2372.573730 885.070251,2357.791016 878.035950,2337.427246   C872.859680,2322.442139 871.070862,2307.014404 873.170654,2290.755859   C874.914246,2277.255371 878.242554,2264.873291 885.284180,2253.416504   C900.219299,2229.116943 922.254578,2216.973633 950.528748,2216.462158   C960.086426,2216.289062 969.952698,2216.510986 979.189148,2218.656738   C999.354065,2223.340576 1013.743103,2236.209229 1023.740601,2254.106934   C1033.924438,2272.337891 1036.242798,2292.197998 1036.241333,2313.710938   C1026.269897,2314.889160 1016.694519,2314.164307 1007.179993,2314.289551   C997.519714,2314.416992 987.856567,2314.317871 978.194641,2314.317871   C968.865906,2314.317871 959.537231,2314.317871 950.208496,2314.317871   C940.590088,2314.317871 930.971619,2314.317871 921.502808,2314.317871   C918.541565,2332.187500 931.827759,2349.566406 949.313538,2351.638672   C965.692261,2353.580322 979.442749,2349.394043 989.065979,2334.977295   C990.154724,2333.346191 992.814697,2331.904297 994.780212,2331.859131   C1007.052124,2331.576904 1019.333679,2331.716553 1032.872803,2331.716553   C1026.710449,2356.083740 1012.610840,2372.296387 990.488525,2382.948242  M960.961975,2283.703125   C969.654419,2283.129639 978.543152,2285.029541 987.132751,2282.366455   C982.780945,2256.081055 964.992859,2250.468750 950.740784,2252.117188   C932.845642,2254.187012 919.958313,2268.708496 921.361206,2283.703125   C933.844238,2283.703125 946.410583,2283.703125 960.961975,2283.703125  z"/>
    <path fill="#D6000C" opacity="1.000000" stroke="none" d=" M1135.250977,2089.684082   C1122.156250,2085.483887 1110.194336,2081.354980 1099.867798,2072.734131   C1084.981934,2060.306885 1077.657349,2044.216797 1074.077393,2026.004150   C1072.492798,2017.942627 1071.512451,2009.548340 1071.840698,2001.368408   C1072.580688,1982.924316 1077.319580,1965.564209 1088.278076,1950.203735   C1097.939941,1936.660278 1111.148804,1927.848145 1126.455078,1922.736206   C1147.879517,1915.581055 1169.591553,1915.837769 1190.338013,1925.594849   C1210.285400,1934.976440 1222.897095,1951.127075 1230.014038,1971.744263   C1232.843262,1979.940063 1234.970337,1988.279419 1234.359741,1997.089111   C1233.939819,2003.148804 1238.411621,2009.434692 1232.260010,2016.315063   C1196.005371,2016.315063 1158.476440,2016.315063 1121.121826,2016.315063   C1118.783569,2031.570923 1127.243042,2046.678833 1140.190063,2051.672852   C1158.802002,2058.852539 1176.731323,2053.721436 1188.440796,2038.098022   C1189.677979,2036.447266 1191.997559,2034.630249 1193.858276,2034.582764   C1206.099121,2034.269775 1218.351929,2034.421143 1230.440674,2034.421143   C1230.955078,2036.401855 1231.628906,2037.478760 1231.383545,2038.271729   C1222.199707,2067.974609 1199.100342,2088.933350 1167.079590,2090.231445   C1156.786987,2090.648926 1146.448364,2089.925537 1135.250977,2089.684082  M1122.101440,1975.575439   C1121.327148,1978.585571 1120.552856,1981.595703 1119.658203,1985.073242   C1142.733643,1985.073242 1164.438110,1985.073242 1186.163818,1985.073242   C1185.307129,1967.143921 1170.339844,1953.348877 1153.363647,1954.454956   C1139.829834,1955.336548 1128.343384,1960.466064 1122.101440,1975.575439  z"/>
    <path fill="#D6000C" opacity="1.000000" stroke="none" d=" M652.302368,1999.999756   C652.302368,1974.411255 652.302368,1949.822632 652.302368,1924.450684   C667.978760,1924.450684 682.721924,1924.450684 697.814148,1924.450684   C698.142273,1928.742920 698.441956,1932.663208 698.856506,1938.086304   C701.509155,1936.177612 703.553162,1934.952026 705.312683,1933.403320   C726.561890,1914.701172 757.610962,1914.431763 781.208801,1924.854614   C788.486023,1928.069092 794.327942,1933.950806 798.208313,1941.208740   C802.940186,1950.059326 806.326965,1959.347534 806.327759,1969.568481   C806.330688,2006.550537 806.322693,2043.532593 806.295776,2080.514648   C806.294800,2081.835938 806.051880,2083.156982 805.865784,2085.045654   C798.562927,2087.547852 790.910889,2086.001465 783.432190,2086.275635   C776.129089,2086.543457 768.808472,2086.334229 760.235107,2086.334229   C760.026306,2082.369141 759.687744,2078.872314 759.682312,2075.375244   C759.639038,2047.388794 759.763855,2019.401611 759.565002,1991.416504   C759.527893,1986.201538 758.200134,1981.003174 757.586365,1975.783203   C755.943604,1961.811646 738.043274,1954.094116 725.538696,1956.908691   C710.652649,1960.259399 703.217957,1972.555420 701.607544,1984.795044   C697.724548,2014.307373 700.651550,2043.917236 699.706848,2073.462402   C699.582458,2077.354248 699.689819,2081.253174 699.689819,2085.734375   C683.579224,2085.734375 668.723328,2085.734375 652.425903,2085.734375   C652.177734,2071.388428 652.336182,2057.179932 652.308350,2042.980103   C652.280945,2028.986694 652.302368,2014.993286 652.302368,1999.999756  z"/>
    <path fill="#D6000C" opacity="1.000000" stroke="none" d=" M1475.915283,2043.082397   C1476.960083,2033.940308 1472.155884,2028.749634 1465.138916,2026.514526   C1452.571411,2022.511597 1439.683716,2019.485229 1426.868774,2016.295410   C1412.080078,2012.614502 1397.285889,2009.058105 1385.809937,1997.997681   C1379.021851,1991.455200 1375.090454,1983.651001 1375.684814,1974.036133   C1376.092529,1967.439697 1375.662964,1960.505615 1377.593872,1954.344971   C1382.600220,1938.370972 1393.787354,1928.310303 1409.965942,1923.481445   C1434.469482,1916.168091 1458.911133,1915.797974 1483.198242,1923.824707   C1492.015625,1926.738892 1500.253052,1931.212646 1506.657593,1938.344971   C1514.918701,1947.544800 1518.480469,1958.472900 1519.522095,1970.407227   C1511.525391,1972.760864 1486.561401,1973.148315 1475.054077,1971.302002   C1474.170532,1968.987427 1473.267700,1966.536865 1472.303101,1964.110840   C1469.278564,1956.503540 1463.319092,1952.641724 1455.488647,1951.999390   C1449.202881,1951.483765 1442.846313,1951.826050 1436.521118,1951.810303   C1435.860229,1951.808716 1435.189331,1951.912109 1434.539795,1952.047607   C1428.984619,1953.204956 1422.881226,1958.334961 1422.686035,1962.837891   C1422.431641,1968.706299 1425.852417,1973.128540 1430.781494,1975.499023   C1436.402100,1978.201904 1442.462036,1980.175659 1448.516479,1981.755249   C1462.578735,1985.424438 1476.860352,1988.286987 1490.830322,1992.260010   C1496.763184,1993.947266 1502.636475,1996.898804 1507.671997,2000.488770   C1523.105835,2011.491577 1525.823853,2027.443726 1522.961792,2044.822021   C1519.547241,2065.553711 1506.661621,2078.153564 1487.310791,2085.051758   C1478.145386,2088.319092 1468.899048,2090.532471 1459.117188,2090.369629   C1451.458130,2090.241943 1443.791138,2090.503906 1436.135132,2090.302979   C1420.505371,2089.892578 1406.058472,2085.483154 1393.268677,2076.409180   C1381.030396,2067.726807 1373.959351,2055.824463 1372.302490,2040.808594   C1372.014404,2038.197998 1371.550781,2035.606689 1371.068604,2032.329468   C1385.652344,2032.329468 1400.157227,2032.329468 1415.397095,2032.329468   C1418.606567,2047.772217 1428.466675,2056.848145 1444.417969,2058.178467   C1457.246948,2059.248291 1469.065430,2056.891357 1475.915283,2043.082397  z"/>
    <path fill="#D6000C" opacity="1.000000" stroke="none" d=" M1003.650269,1967.672729   C1008.105713,1952.978760 1012.459839,1939.084717 1017.267273,1923.744141   C1032.338135,1923.587646 1047.808838,1923.593994 1064.853271,1923.831055   C1046.322632,1978.523682 1028.188843,2032.045166 1009.977173,2085.796387   C992.262695,2085.796387 975.372620,2085.796387 957.468018,2085.796387   C939.198242,2032.512695 920.880127,1979.087769 902.282654,1924.848389   C904.916077,1924.396240 907.034180,1923.736450 909.158081,1923.717163   C920.815613,1923.611206 932.475098,1923.593628 944.132812,1923.682983   C952.121765,1923.744263 951.890564,1923.914551 954.439697,1932.278687   C960.813171,1953.190796 967.398376,1974.038452 973.934937,1994.900635   C976.986755,2004.640991 980.122803,2014.354858 983.593384,2025.250732   C985.288330,2022.973633 987.062378,2021.504883 987.649658,2019.658569   C993.066406,2002.633911 998.277832,1985.543701 1003.650269,1967.672729  z"/>
    <path fill="#D6000C" opacity="1.000000" stroke="none" d=" M1107.715576,2166.639160   C1107.720459,2239.099609 1107.720459,2310.625488 1107.720459,2382.911621   C1091.603882,2382.911621 1076.485352,2382.911621 1061.375244,2382.911621   C1059.270142,2375.817383 1058.656128,2171.794922 1060.810669,2159.068604   C1075.802002,2159.068604 1090.935913,2159.068604 1106.669800,2159.068604   C1107.019775,2161.299805 1107.365234,2163.502441 1107.715576,2166.639160  z"/>
    <path fill="#D4000C" opacity="1.000000" stroke="none" d=" M1608.000732,2383.691406   C1600.064941,2383.691406 1593.104980,2383.691406 1586.379883,2383.691406   C1583.883911,2376.185791 1582.933350,2177.312012 1585.265625,2158.624756   C1600.104248,2158.003662 1615.161499,2158.362793 1630.971924,2158.412598   C1630.971924,2233.677246 1630.971924,2307.986816 1630.971924,2383.691406   C1623.395386,2383.691406 1616.185913,2383.691406 1608.000732,2383.691406  z"/>
    <path fill="#D4000C" opacity="1.000000" stroke="none" d=" M1711.708252,2278.000000   C1711.708252,2313.249512 1711.708252,2347.498779 1711.708252,2381.518311   C1704.387085,2384.130371 1679.553589,2384.716309 1665.953735,2382.809082   C1663.965576,2375.792969 1663.350464,2172.503906 1665.502563,2158.446533   C1680.310791,2158.220947 1695.355103,2158.203613 1711.708252,2158.510010   C1711.708252,2198.694336 1711.708252,2237.847168 1711.708252,2278.000000  z"/>
    <path fill="#D6000C" opacity="1.000000" stroke="none" d=" M1364.302979,1924.715576   C1364.331055,1937.934692 1364.331055,1950.218872 1364.331055,1963.411133   C1360.147949,1963.411133 1356.406860,1964.195801 1353.164795,1963.257080   C1344.976196,1960.885864 1337.396240,1963.377930 1330.099609,1965.890015   C1317.682617,1970.164673 1311.432373,1980.607544 1308.294312,1992.476929   C1306.295532,2000.036987 1305.929321,2008.165649 1305.796753,2016.055542   C1305.466064,2035.706177 1305.707275,2055.366211 1305.667969,2075.022461   C1305.661377,2078.290039 1305.398682,2081.557129 1305.221680,2085.567383   C1289.651855,2085.567383 1274.590210,2085.567383 1258.916992,2085.567383   C1258.916992,2031.915894 1258.916992,1978.749146 1258.916992,1925.605225   C1265.774048,1923.208862 1288.983154,1922.728638 1301.869751,1924.841675   C1302.168091,1931.051880 1302.476807,1937.477295 1302.785522,1943.902710   C1303.588867,1944.439697 1304.392212,1944.976807 1305.195679,1945.513916   C1306.301514,1943.596191 1307.139893,1941.449463 1308.555176,1939.796631   C1321.423950,1924.766113 1337.647339,1917.331543 1357.587402,1918.318970   C1361.339233,1918.504761 1364.197266,1919.317993 1364.302979,1924.715576  z"/>
    <path fill="#D9000C" opacity="1.000000" stroke="none" d=" M1594.329102,1966.000366   C1594.329102,2006.250854 1594.329102,2045.501465 1594.329102,2085.969727   C1578.789673,2086.650391 1564.007080,2086.220703 1549.418335,2086.255615   C1547.341797,2078.357178 1546.696533,1939.624146 1548.630737,1923.989624   C1563.215820,1923.330811 1577.997559,1923.765869 1594.114258,1923.742310   C1594.188354,1937.964844 1594.258667,1951.482544 1594.329102,1966.000366  z"/>
    <path fill="#D9000C" opacity="1.000000" stroke="none" d=" M877.714294,1923.676025   C880.911438,1923.913086 883.139343,1924.147217 885.816101,1924.428589   C885.816101,1978.197754 885.816101,2031.383667 885.816101,2086.057861   C878.274048,2086.145264 870.781006,2086.265137 863.287537,2086.309570   C855.988281,2086.353027 848.688599,2086.318848 841.596191,2086.318848   C839.238892,2078.596436 838.335083,1945.005981 840.461914,1923.942627   C852.410950,1923.853882 864.578003,1923.763428 877.714294,1923.676025  z"/>
    <path fill="#D6000C" opacity="1.000000" stroke="none" d=" M839.655884,1872.217651   C839.883179,1868.357666 840.109619,1865.471924 840.368835,1862.168945   C855.538147,1862.168945 870.047363,1862.168945 885.955505,1862.168945   C886.720276,1874.902100 886.304321,1887.613037 886.191406,1901.015625   C870.634949,1901.015625 855.891663,1901.015625 839.654968,1901.015625   C839.654968,1891.529297 839.654968,1882.360596 839.655884,1872.217651  z"/>
    <path fill="#D6000C" opacity="1.000000" stroke="none" d=" M1581.704468,1901.696167   C1570.182495,1901.696289 1559.622070,1901.696289 1548.376709,1901.696289   C1548.376709,1888.277832 1548.376709,1875.824829 1548.376709,1861.927002   C1555.768311,1861.840576 1563.247437,1861.719849 1570.727051,1861.675049   C1578.009399,1861.631348 1585.292236,1861.665527 1593.939209,1861.665527   C1594.679199,1874.938354 1594.341553,1887.638672 1594.159424,1901.696045   C1589.746460,1901.696045 1586.206177,1901.696045 1581.704468,1901.696167  z"/>
</svg>